<?xml version="1.0" encoding="utf-8"?>
<!-- Generator: Adobe Illustrator 27.5.0, SVG Export Plug-In . SVG Version: 6.00 Build 0)  -->
<svg version="1.1" xmlns="http://www.w3.org/2000/svg" xmlns:xlink="http://www.w3.org/1999/xlink" x="0px" y="0px"
	 viewBox="0 0 500 500" style="enable-background:new 0 0 500 500;" xml:space="preserve">
<g id="Background_Complete">
	<g>
		<rect y="382.398" style="fill:#EBEBEB;" width="500" height="0.25"/>
		<rect x="416.779" y="398.494" style="fill:#EBEBEB;" width="33.122" height="0.25"/>
		<rect x="322.527" y="401.208" style="fill:#EBEBEB;" width="8.693" height="0.25"/>
		<rect x="396.586" y="389.208" style="fill:#EBEBEB;" width="19.192" height="0.25"/>
		<rect x="52.459" y="390.888" style="fill:#EBEBEB;" width="43.193" height="0.25"/>
		<rect x="104.556" y="390.888" style="fill:#EBEBEB;" width="6.333" height="0.25"/>
		<rect x="131.471" y="395.111" style="fill:#EBEBEB;" width="93.676" height="0.25"/>
		<path style="fill:#EBEBEB;" d="M237.014,337.8H43.915c-3.147,0-5.708-2.561-5.708-5.708V60.66c0-3.147,2.561-5.708,5.708-5.708
			h193.099c3.146,0,5.707,2.561,5.707,5.708v271.432C242.721,335.239,240.16,337.8,237.014,337.8z M43.915,55.203
			c-3.01,0-5.458,2.448-5.458,5.458v271.432c0,3.01,2.448,5.458,5.458,5.458h193.099c3.009,0,5.457-2.448,5.457-5.458V60.66
			c0-3.009-2.448-5.458-5.457-5.458H43.915z"/>
		<path style="fill:#EBEBEB;" d="M453.31,337.8H260.212c-3.147,0-5.707-2.561-5.707-5.708V60.66c0-3.147,2.561-5.708,5.707-5.708
			H453.31c3.148,0,5.708,2.561,5.708,5.708v271.432C459.019,335.239,456.458,337.8,453.31,337.8z M260.212,55.203
			c-3.009,0-5.457,2.448-5.457,5.458v271.432c0,3.01,2.448,5.458,5.457,5.458H453.31c3.01,0,5.458-2.448,5.458-5.458V60.66
			c0-3.009-2.448-5.458-5.458-5.458H260.212z"/>
	</g>
	<g>
		<g>
			
				<rect x="88.465" y="275.93" transform="matrix(-1 -1.224647e-16 1.224647e-16 -1 206.3473 658.3279)" style="fill:#E6E6E6;" width="29.417" height="106.469"/>
			<polygon style="fill:#F0F0F0;" points="93.563,382.398 88.465,382.398 88.465,367.899 98.907,367.899 			"/>
			
				<rect x="282.451" y="275.93" transform="matrix(-1 -1.224647e-16 1.224647e-16 -1 594.3189 658.3279)" style="fill:#E6E6E6;" width="29.417" height="106.469"/>
			
				<rect x="88.465" y="275.93" transform="matrix(-1 -1.224647e-16 1.224647e-16 -1 375.3646 649.4306)" style="fill:#F0F0F0;" width="198.434" height="97.572"/>
			
				<rect x="92.42" y="280.254" transform="matrix(-1 -1.224647e-16 1.224647e-16 -1 375.3645 587.266)" style="fill:#E6E6E6;" width="190.525" height="26.758"/>
			<path style="fill:#F0F0F0;" d="M148.449,288.569h78.466c8.028,0,15.703-3.301,21.225-9.129l0,0H127.225l0,0
				C132.746,285.268,140.421,288.569,148.449,288.569z"/>
			<polygon style="fill:#F0F0F0;" points="281.802,382.398 286.899,382.398 286.899,367.899 276.457,367.899 			"/>
			
				<rect x="92.42" y="311.336" transform="matrix(-1 -1.224647e-16 1.224647e-16 -1 375.3645 649.4306)" style="fill:#E6E6E6;" width="190.525" height="26.758"/>
			<path style="fill:#F0F0F0;" d="M148.449,319.652h78.466c8.028,0,15.703-3.301,21.225-9.129l0,0H127.225l0,0
				C132.746,316.351,140.421,319.652,148.449,319.652z"/>
			
				<rect x="92.42" y="342.419" transform="matrix(-1 -1.224647e-16 1.224647e-16 -1 375.3645 711.5954)" style="fill:#E6E6E6;" width="190.525" height="26.758"/>
			<path style="fill:#F0F0F0;" d="M148.449,350.734h78.466c8.028,0,15.703-3.301,21.225-9.129l0,0H127.225l0,0
				C132.746,347.433,140.421,350.734,148.449,350.734z"/>
		</g>
		<g>
			<g>
				
					<rect x="84.128" y="101.003" transform="matrix(-1 -1.224647e-16 1.224647e-16 -1 284.2951 345.7131)" style="fill:#E6E6E6;" width="116.038" height="143.708"/>
				
					<rect x="70.93" y="101.003" transform="matrix(-1 -1.224647e-16 1.224647e-16 -1 267.7318 345.7131)" style="fill:#F0F0F0;" width="125.873" height="143.708"/>
				
					<rect x="72.557" y="120.465" transform="matrix(-1.836970e-16 1 -1 -1.836970e-16 306.7226 38.9906)" style="fill:#FFFFFF;" width="122.618" height="104.782"/>
			</g>
		</g>
		<g>
			
				<rect x="279.101" y="99.417" transform="matrix(-1 -1.224647e-16 1.224647e-16 -1 715.4376 340.5435)" style="fill:#EBEBEB;" width="157.236" height="141.71"/>
			
				<rect x="274.968" y="99.417" transform="matrix(-1 -1.224647e-16 1.224647e-16 -1 709.3743 340.5435)" style="fill:#F5F5F5;" width="159.438" height="141.71"/>
			
				<rect x="291.249" y="241.127" transform="matrix(-1 -1.224647e-16 1.224647e-16 -1 727.5855 489.9327)" style="fill:#EBEBEB;" width="145.088" height="7.679"/>
			
				<rect x="268.896" y="241.127" transform="matrix(-1 -1.224647e-16 1.224647e-16 -1 674.457 489.9327)" style="fill:#F0F0F0;" width="136.664" height="7.679"/>
			
				<rect x="289.617" y="96.338" transform="matrix(-1.836970e-16 1 -1 -1.836970e-16 524.959 -184.4154)" style="fill:#FAFAFA;" width="130.14" height="147.867"/>
			<polygon style="fill:#FFFFFF;" points="405.561,235.342 356.166,105.202 332.849,105.202 382.243,235.342 			"/>
			<path style="fill:#F0F0F0;" d="M425.841,226.238c0.284,0,0.514-0.23,0.514-0.514V109.067c0-0.284-0.23-0.514-0.514-0.514
				c-0.284,0-0.514,0.23-0.514,0.514v116.656C425.327,226.007,425.557,226.238,425.841,226.238z"/>
			<polygon style="fill:#FFFFFF;" points="377.234,235.342 327.84,105.202 318.749,105.202 368.144,235.342 			"/>
			<polygon style="fill:#FFFFFF;" points="355.68,235.342 306.285,105.202 297.195,105.202 346.589,235.342 			"/>
			
				<rect x="216.051" y="169.904" transform="matrix(-1.836970e-16 1 -1 -1.836970e-16 451.3928 -110.8492)" style="fill:#EBEBEB;" width="130.14" height="0.735"/>
			<g style="opacity:0.7;">
				<polygon style="fill:#EBEBEB;" points="273.6,110.45 430.836,110.45 431.369,107.451 274.133,107.451 				"/>
				<polygon style="fill:#EBEBEB;" points="273.6,113.672 430.836,113.672 431.369,110.673 274.133,110.673 				"/>
				<polygon style="fill:#EBEBEB;" points="273.6,116.894 430.836,116.894 431.369,113.894 274.133,113.894 				"/>
				<polygon style="fill:#EBEBEB;" points="273.6,120.115 430.836,120.115 431.369,117.116 274.133,117.116 				"/>
				<polygon style="fill:#EBEBEB;" points="273.6,123.337 430.836,123.337 431.369,120.338 274.133,120.338 				"/>
				<polygon style="fill:#EBEBEB;" points="273.6,126.559 430.836,126.559 431.369,123.559 274.133,123.559 				"/>
				<polygon style="fill:#EBEBEB;" points="273.6,129.78 430.836,129.78 431.369,126.781 274.133,126.781 				"/>
				<polygon style="fill:#EBEBEB;" points="273.6,133.002 430.836,133.002 431.369,130.003 274.133,130.003 				"/>
				<polygon style="fill:#EBEBEB;" points="273.6,136.224 430.836,136.224 431.369,133.224 274.133,133.224 				"/>
				<polygon style="fill:#EBEBEB;" points="273.6,139.445 430.836,139.445 431.369,136.446 274.133,136.446 				"/>
				<polygon style="fill:#EBEBEB;" points="273.6,142.667 430.836,142.667 431.369,139.668 274.133,139.668 				"/>
				<polygon style="fill:#EBEBEB;" points="273.6,145.889 430.836,145.889 431.369,142.89 274.133,142.89 				"/>
				<polygon style="fill:#EBEBEB;" points="273.6,149.111 430.836,149.111 431.369,146.111 274.133,146.111 				"/>
				<polygon style="fill:#EBEBEB;" points="273.6,152.332 430.836,152.332 431.369,149.333 274.133,149.333 				"/>
				<polygon style="fill:#EBEBEB;" points="273.6,155.554 430.836,155.554 431.369,152.555 274.133,152.555 				"/>
				<polygon style="fill:#EBEBEB;" points="273.6,158.776 430.836,158.776 431.369,155.776 274.133,155.776 				"/>
				<polygon style="fill:#EBEBEB;" points="273.6,161.997 430.836,161.997 431.369,158.998 274.133,158.998 				"/>
				<polygon style="fill:#EBEBEB;" points="273.6,165.219 430.836,165.219 431.369,162.22 274.133,162.22 				"/>
				<polygon style="fill:#EBEBEB;" points="273.6,168.441 430.836,168.441 431.369,165.441 274.133,165.441 				"/>
				<polygon style="fill:#EBEBEB;" points="273.6,171.662 430.836,171.662 431.369,168.663 274.133,168.663 				"/>
				<polygon style="fill:#EBEBEB;" points="273.6,174.884 430.836,174.884 431.369,171.885 274.133,171.885 				"/>
				<polygon style="fill:#EBEBEB;" points="273.6,178.106 430.836,178.106 431.369,175.107 274.133,175.107 				"/>
				<polygon style="fill:#EBEBEB;" points="273.6,181.327 430.836,181.327 431.369,178.328 274.133,178.328 				"/>
				<polygon style="fill:#EBEBEB;" points="273.6,184.549 430.836,184.549 431.369,181.55 274.133,181.55 				"/>
			</g>
		</g>
		<path style="fill:#EBEBEB;" d="M245.714,260.334c0,8.614-11.32,15.596-25.284,15.596c-13.964,0-25.284-6.983-25.284-15.596
			H245.714z"/>
		<path style="fill:#EBEBEB;" d="M179.27,260.334c0,8.614-11.32,15.596-25.284,15.596c-13.964,0-25.284-6.983-25.284-15.596H179.27z
			"/>
		<g>
			<g>
				
					<rect x="370.595" y="284.368" transform="matrix(-1 -1.224647e-16 1.224647e-16 -1 759.2944 660.9252)" style="fill:#F0F0F0;" width="18.104" height="92.189"/>
				
					<rect x="295.943" y="376.557" transform="matrix(-1 -1.224647e-16 1.224647e-16 -1 681.1656 758.9555)" style="fill:#F0F0F0;" width="89.28" height="5.841"/>
				<rect x="292.466" y="284.368" style="fill:#F5F5F5;" width="78.129" height="92.189"/>
				<rect x="299.584" y="295.715" style="fill:#F0F0F0;" width="63.893" height="30.235"/>
				<rect x="299.584" y="334.975" style="fill:#F0F0F0;" width="63.893" height="30.235"/>
				<path style="fill:#F5F5F5;" d="M324.248,312.906h14.565c0.911,0,1.656-0.745,1.656-1.656v-0.834
					c0-0.911-0.745-1.656-1.656-1.656h-14.565c-0.911,0-1.656,0.745-1.656,1.656v0.834
					C322.592,312.16,323.338,312.906,324.248,312.906z"/>
				<path style="fill:#F5F5F5;" d="M324.248,352.165h14.565c0.911,0,1.656-0.745,1.656-1.656v-0.834
					c0-0.911-0.745-1.656-1.656-1.656h-14.565c-0.911,0-1.656,0.745-1.656,1.656v0.834
					C322.592,351.42,323.338,352.165,324.248,352.165z"/>
			</g>
		</g>
	</g>
</g>
<g id="Background_Simple" style="display:none;">
	<g style="display:inline;">
		<path style="fill:#407BFF;" d="M280.368,116.021c27.759,38.413,44.462,43.3,83.091,67.893
			c31.581,20.106,60.763,54.561,66.865,93.146c16.073,101.649-119.249,94.636-180.038,69.688
			c-42.798-17.565-56.863-45.881-61.969-90.238c-1.986-17.251-0.679-35.415-5.611-52.27c-5.298-18.108-19.957-28.659-25.703-44.715
			C129.151,81.703,243.366,64.818,280.368,116.021z"/>
		<path style="opacity:0.9;fill:#FFFFFF;" d="M280.368,116.021c27.759,38.413,44.462,43.3,83.091,67.893
			c31.581,20.106,60.763,54.561,66.865,93.146c16.073,101.649-119.249,94.636-180.038,69.688
			c-42.798-17.565-56.863-45.881-61.969-90.238c-1.986-17.251-0.679-35.415-5.611-52.27c-5.298-18.108-19.957-28.659-25.703-44.715
			C129.151,81.703,243.366,64.818,280.368,116.021z"/>
	</g>
</g>
<g id="Shadow_1_">
	<ellipse id="_x3C_Path_x3E__46_" style="fill:#F5F5F5;" cx="250" cy="416.238" rx="193.889" ry="11.323"/>
</g>
<g id="Website">
	<g>
		<rect x="87.574" y="176.919" style="fill:#407BFF;" width="1" height="19.199"/>
		<rect x="87.574" y="203.366" style="fill:#407BFF;" width="1" height="8.816"/>
		<path style="fill:#407BFF;" d="M101.297,129.311h259.991c5.818,0,10.579,4.76,10.579,10.579v162.943
			c0,5.818-4.76,10.579-10.579,10.579H101.297c-5.818,0-10.579-4.76-10.579-10.579V139.889
			C90.718,134.071,95.479,129.311,101.297,129.311z"/>
		<path style="fill:#FFFFFF;" d="M101.297,309.885c-3.889,0-7.053-3.164-7.053-7.053V139.89c0-3.889,3.164-7.053,7.053-7.053
			h259.991c3.889,0,7.052,3.164,7.052,7.053v162.943c0,3.889-3.164,7.053-7.052,7.053H101.297z"/>
		<path style="opacity:0.6;fill:#407BFF;" d="M199.556,281.419v28.466h63.473v-28.466c0-5.509-4.466-9.975-9.975-9.975h-43.523
			C204.022,271.444,199.556,275.91,199.556,281.419z"/>
		<path style="opacity:0.6;fill:#407BFF;" d="M279.779,281.419v28.466h63.473v-28.466c0-5.509-4.466-9.975-9.975-9.975h-43.523
			C284.245,271.444,279.779,275.91,279.779,281.419z"/>
		<path style="opacity:0.6;fill:#407BFF;" d="M119.334,281.419v28.466h63.473v-28.466c0-5.509-4.466-9.975-9.975-9.975h-43.523
			C123.8,271.444,119.334,275.91,119.334,281.419z"/>
		<path style="fill:#407BFF;" d="M322.29,150.668h18.415c1.401,0,2.547-1.146,2.547-2.547l0,0c0-1.401-1.146-2.547-2.547-2.547
			H322.29c-1.401,0-2.547,1.146-2.547,2.547l0,0C319.743,149.521,320.889,150.668,322.29,150.668z"/>
		<circle style="fill:#407BFF;" cx="259.613" cy="148.121" r="4.016"/>
		<path style="fill:#407BFF;" d="M251.134,148.121c0,2.218-1.798,4.016-4.016,4.016c-2.218,0-4.016-1.798-4.016-4.016
			s1.798-4.016,4.016-4.016C249.336,144.105,251.134,145.903,251.134,148.121z"/>
		<path style="fill:#407BFF;" d="M125.958,152.235h-5.02c-0.882,0-1.604-0.722-1.604-1.604v-5.02c0-0.882,0.722-1.604,1.604-1.604
			h5.02c0.882,0,1.604,0.722,1.604,1.604v5.02C127.562,151.513,126.84,152.235,125.958,152.235z"/>
		<path style="opacity:0.2;fill:#263238;" d="M152.441,149.394h-9.599c-0.7,0-1.273-0.573-1.273-1.273l0,0
			c0-0.7,0.573-1.273,1.273-1.273h9.599c0.7,0,1.273,0.573,1.273,1.273l0,0C153.715,148.821,153.142,149.394,152.441,149.394z"/>
		<path style="opacity:0.2;fill:#263238;" d="M171.183,149.394h-9.599c-0.7,0-1.273-0.573-1.273-1.273l0,0
			c0-0.7,0.573-1.273,1.273-1.273h9.599c0.7,0,1.273,0.573,1.273,1.273l0,0C172.457,148.821,171.884,149.394,171.183,149.394z"/>
		<path style="opacity:0.2;fill:#263238;" d="M189.925,149.394h-9.599c-0.7,0-1.273-0.573-1.273-1.273l0,0
			c0-0.7,0.573-1.273,1.273-1.273h9.599c0.7,0,1.273,0.573,1.273,1.273l0,0C191.199,148.821,190.626,149.394,189.925,149.394z"/>
		<path style="opacity:0.2;fill:#263238;" d="M208.667,149.394h-9.599c-0.7,0-1.273-0.573-1.273-1.273l0,0
			c0-0.7,0.573-1.273,1.273-1.273h9.599c0.7,0,1.273,0.573,1.273,1.273l0,0C209.941,148.821,209.368,149.394,208.667,149.394z"/>
	</g>
</g>
<g id="Character_1_">
	<g>
		<g>
			<path style="opacity:0.4;fill:#407BFF;" d="M412.927,247.096l-202.642,6.922c-5.815,0.199-10.735-4.396-10.934-10.212
				l-2.017-59.031c-0.199-5.815,4.396-10.735,10.212-10.934l202.642-6.922c5.815-0.199,10.735,4.396,10.934,10.212l2.016,59.03
				C423.338,241.977,418.742,246.897,412.927,247.096z"/>
			<path style="opacity:0.4;fill:#407BFF;" d="M285.614,216.493l-63.193,2.159c-3.392,0.116-6.262-2.565-6.378-5.957l0,0
				c-0.116-3.392,2.565-6.262,5.957-6.378l63.194-2.159c3.392-0.116,6.262,2.565,6.378,5.957v0
				C291.687,213.507,289.006,216.378,285.614,216.493z"/>
			<path style="opacity:0.4;fill:#407BFF;" d="M264.816,235.957l-41.755,1.426c-3.392,0.116-6.262-2.565-6.378-5.957v0
				c-0.116-3.392,2.565-6.262,5.957-6.378l41.755-1.426c3.392-0.116,6.262,2.565,6.378,5.957l0,0
				C270.888,232.971,268.208,235.841,264.816,235.957z"/>
		</g>
		<g>
			<g>
				<path style="fill:#7F3E3B;" d="M416.804,212.558l1.804,5.609l6.644-6.074c0,0-1.613-1.127-4.283-2.517
					c-1.115-0.581-2.49-0.167-3.08,0.943L416.804,212.558z"/>
				<polygon style="fill:#7F3E3B;" points="425.197,222.786 428.064,216.106 425.252,212.093 418.608,218.167 				"/>
			</g>
			<g>
				<g>
					<line style="opacity:0.2;" x1="421.771" y1="158.213" x2="421.771" y2="158.213"/>
				</g>
			</g>
			<g>
				<g>
					<path style="fill:#7F3E3B;" d="M353.389,171.339c-3.414,4.591-6.944,8.905-10.709,13.15
						c-3.766,4.229-7.696,8.336-12.098,12.207l-0.245,0.216l-0.477,0.39c-0.32,0.254-0.681,0.475-1.036,0.684
						c-0.724,0.395-1.497,0.698-2.232,0.864c-1.498,0.359-2.791,0.286-3.904,0.119c-2.217-0.371-3.832-1.119-5.327-1.881
						c-2.945-1.555-5.286-3.417-7.543-5.31c-4.452-3.852-8.26-8.009-11.822-12.545l4.001-3.797
						c4.164,3.399,8.526,6.775,12.884,9.647c2.165,1.432,4.422,2.719,6.478,3.562c1.005,0.411,2.012,0.671,2.548,0.661
						c0.256-0.003,0.376-0.054,0.221-0.056c-0.06,0.008-0.194,0.026-0.311,0.092c-0.066,0.019-0.124,0.067-0.181,0.096
						c-0.028,0.015-0.055,0.034-0.078,0.056l0.133-0.14c1.826-1.863,3.602-3.859,5.38-5.862c1.761-2.026,3.5-4.1,5.232-6.183
						c3.433-4.178,6.882-8.475,10.202-12.683L353.389,171.339z"/>
				</g>
				<polygon style="fill:#7F3E3B;" points="298.208,166.718 290.42,168.312 294.251,175.128 301.177,169.761 				"/>
				<path style="fill:#7F3E3B;" d="M302.164,176.865l-0.987-7.104l-6.926,5.367c0,0,1.069,6.182,5.973,6.182L302.164,176.865z"/>
				<path style="fill:#263238;" d="M302.685,175.443c-0.414,0-0.75,0.336-0.75,0.75c0,0.058,0.021,0.11,0.033,0.165
					c-0.099-0.049-0.207-0.081-0.325-0.081c-0.414,0-0.75,0.336-0.75,0.75c0,0.077,0.022,0.147,0.044,0.217
					c-0.016-0.001-0.028-0.009-0.044-0.009c-0.414,0-0.75,0.336-0.75,0.75c0,0.168,0.065,0.315,0.159,0.44
					c-0.004,0-0.008-0.003-0.013-0.003c-0.415,0-0.75,0.336-0.75,0.75c0,0.171,0.067,0.321,0.163,0.447
					c-0.34,0.071-0.601,0.359-0.601,0.72c0,0.244,0.124,0.451,0.305,0.588c-0.286,0.106-0.493,0.375-0.493,0.698
					c0,0.414,0.335,0.75,0.75,0.75c0.414,0,0.75-0.336,0.75-0.75c0-0.244-0.125-0.451-0.305-0.588
					c0.286-0.106,0.493-0.375,0.493-0.698c0-0.171-0.067-0.321-0.164-0.447c0.34-0.071,0.601-0.358,0.601-0.72
					c0-0.168-0.066-0.315-0.159-0.44c0.005,0,0.009,0.003,0.013,0.003c0.414,0,0.75-0.336,0.75-0.75
					c0-0.077-0.022-0.147-0.044-0.217c0.016,0.001,0.028,0.009,0.044,0.009c0.414,0,0.75-0.336,0.75-0.75
					c0-0.058-0.021-0.11-0.033-0.164c0.099,0.048,0.207,0.081,0.325,0.081c0.415,0,0.75-0.336,0.75-0.75
					C303.435,175.779,303.099,175.443,302.685,175.443z"/>
				<path style="fill:#7F3E3B;" d="M394.1,163.728c2.33,4.118,4.573,8.284,6.762,12.478c2.181,4.199,4.326,8.417,6.414,12.666
					l0.784,1.593l0.658,1.296l0.777,1.348l0.863,1.389c1.209,1.855,2.505,3.75,3.841,5.631l8.151,11.419l-3.997,3.801
					c-3.772-3.052-7.308-6.269-10.706-9.746c-1.688-1.749-3.357-3.535-4.954-5.482l-1.198-1.494l-1.175-1.61
					c-0.374-0.581-0.803-1.24-1.124-1.767l-0.911-1.52c-2.433-4.051-4.808-8.131-7.148-12.231c-2.332-4.104-4.609-8.238-6.8-12.418
					L394.1,163.728z"/>
				<path style="fill:#263238;" d="M356.274,135.316c0.123,0.58-0.082,1.127-0.457,1.222c-0.376,0.095-0.78-0.298-0.902-0.879
					c-0.123-0.58,0.082-1.127,0.457-1.222C355.747,134.343,356.151,134.736,356.274,135.316z"/>
				<path style="fill:#630F0F;" d="M356.245,136.43c0,0-0.597,3.677-1.693,5.655c1.219,0.701,2.855-0.173,2.855-0.173
					L356.245,136.43z"/>
				<path style="fill:#263238;" d="M354.738,131.795c-0.11,0-0.218-0.052-0.286-0.149c-0.11-0.157-0.072-0.374,0.085-0.485
					c0.057-0.039,1.399-0.958,3.151-0.237c0.178,0.073,0.263,0.276,0.19,0.454c-0.073,0.178-0.277,0.263-0.454,0.189
					c-1.405-0.579-2.477,0.156-2.487,0.164C354.877,131.774,354.807,131.795,354.738,131.795z"/>
				<path style="fill:#7F3E3B;" d="M376.223,137.161c0.649,6.756-0.309,13.298,1.203,19.172c0,0-1.68,5.452-11.666,5.452
					c-10.981,0-5.037-5.451-5.037-5.451c6.048-1.431,6.065-5.878,5.183-10.053L376.223,137.161z"/>
				<path style="fill:#263238;" d="M378.793,158.204c0.854-1.726,1.797-3.701,0.028-4.319c-1.946-0.681-12.714-1.375-16.486-0.097
					c-3.771,1.278-2.851,4.778-2.851,4.778L378.793,158.204z"/>
				<path style="fill:#407BFF;" d="M400.205,404.074c0.726-0.155,1.477-0.472,1.994-0.72c0.069-0.033,0.112-0.104,0.108-0.181
					c-0.004-0.077-0.053-0.143-0.125-0.169c-0.324-0.118-3.188-1.134-3.961-0.503c-0.12,0.098-0.253,0.28-0.207,0.594
					c0.063,0.421,0.262,0.725,0.594,0.901C399.027,404.218,399.608,404.201,400.205,404.074z M401.604,403.207
					c-1.276,0.551-2.311,0.721-2.818,0.452c-0.222-0.118-0.352-0.321-0.396-0.621c-0.022-0.146,0.027-0.207,0.071-0.243
					C398.863,402.467,400.449,402.831,401.604,403.207z"/>
				<path style="fill:#407BFF;" d="M402.157,403.368c0.035-0.008,0.068-0.025,0.095-0.052c0.049-0.049,0.068-0.122,0.048-0.188
					c-0.028-0.095-0.698-2.32-1.769-2.871c-0.279-0.143-0.563-0.167-0.843-0.07h0c-0.433,0.149-0.491,0.448-0.488,0.613
					c0.02,0.911,1.957,2.296,2.863,2.564C402.094,403.374,402.126,403.375,402.157,403.368z M399.895,400.524
					c0.153-0.033,0.305-0.009,0.462,0.072c0.687,0.353,1.219,1.62,1.451,2.262c-0.938-0.441-2.215-1.528-2.227-2.066
					c-0.001-0.049-0.004-0.164,0.231-0.246l0,0C399.839,400.537,399.867,400.53,399.895,400.524z"/>
				<path style="fill:#407BFF;" d="M348.671,409.311c0.742,0,1.543-0.154,2.1-0.289c0.074-0.018,0.131-0.079,0.143-0.154
					c0.012-0.076-0.022-0.151-0.087-0.192c-0.292-0.183-2.882-1.773-3.769-1.317c-0.138,0.071-0.306,0.222-0.326,0.538
					c-0.027,0.425,0.106,0.763,0.393,1.005C347.489,409.206,348.06,409.311,348.671,409.311z M350.22,408.755
					c-1.363,0.273-2.411,0.224-2.85-0.145c-0.193-0.162-0.277-0.387-0.258-0.69c0.009-0.148,0.069-0.197,0.12-0.223
					C347.693,407.46,349.168,408.146,350.22,408.755z"/>
				<path style="fill:#407BFF;" d="M350.727,409.027c0.036,0,0.072-0.01,0.104-0.031c0.058-0.038,0.091-0.105,0.086-0.174
					c-0.008-0.098-0.2-2.414-1.132-3.176c-0.243-0.198-0.516-0.281-0.81-0.245h0c-0.454,0.056-0.574,0.336-0.605,0.498
					c-0.17,0.895,1.436,2.653,2.267,3.104C350.664,409.02,350.696,409.027,350.727,409.027z M349.107,405.774
					c0.156,0,0.3,0.055,0.437,0.167c0.598,0.488,0.854,1.838,0.948,2.515c-0.826-0.627-1.849-1.956-1.748-2.484
					c0.009-0.048,0.031-0.161,0.278-0.192l0,0C349.05,405.776,349.078,405.774,349.107,405.774z"/>
				<polygon style="fill:#7F3E3B;" points="359.367,408.737 352.021,408.737 351.946,391.724 359.292,391.724 				"/>
				<polygon style="fill:#7F3E3B;" points="410.709,401.559 403.523,403.089 397.011,387.081 404.196,385.551 				"/>
				<path style="fill:#263238;" d="M402.868,402.358l8.072-1.719c0.294-0.063,0.584,0.089,0.697,0.365l2.533,6.137
					c0.263,0.637-0.149,1.379-0.829,1.512c-2.827,0.551-4.225,0.676-7.774,1.432c-2.184,0.465-6.644,1.652-9.66,2.294
					c-2.95,0.628-3.93-2.281-2.742-2.816c5.325-2.4,7.119-4.528,8.614-6.512C402.048,402.695,402.438,402.45,402.868,402.358z"/>
				<path style="fill:#263238;" d="M352.102,407.886h8.023c0.3,0,0.552,0.209,0.606,0.502l1.199,6.53
					c0.124,0.677-0.414,1.319-1.107,1.307c-2.892-0.049-7.067-0.219-10.705-0.219c-4.253,0-7.935,0.232-12.923,0.232
					c-3.016,0-3.735-3.049-2.462-3.325c5.796-1.257,10.493-1.392,15.578-4.454C350.863,408.126,351.468,407.886,352.102,407.886z"/>
				<path style="fill:#407BFF;" d="M391.444,157.994c6.824,1.579,13.996,20.351,13.996,20.351l-14.195,9.478
					c0,0-4.956-7.329-8.534-15.529C378.962,163.702,384.466,156.38,391.444,157.994z"/>
				<path style="opacity:0.2;" d="M386.048,169.964l5.868,17.409l-0.667,0.45c0,0-2.677-3.97-5.53-9.33L386.048,169.964z"/>
				<path style="fill:#407BFF;" d="M345.613,190.81c0.053,8.2,0.55,18.4,1.771,31.06h39.3c0.503-6.03-2.151-35.46,4.756-63.88
					c0,0-6.678-1.35-13.086-1.66c-5.011-0.24-12.275-0.4-16.7,0c-5.84,0.53-11.379,2.04-11.379,2.04s-3.361,3.64-4.38,20.71
					C345.696,182.45,345.586,186.33,345.613,190.81z"/>
				<path style="opacity:0.2;" d="M345.613,190.81c2.378-4.34,6.694-13.05,6.085-18.01l-5.802,6.28
					C345.696,182.45,345.586,186.33,345.613,190.81z"/>
				<path style="fill:#407BFF;" d="M357.983,165.017c0.62,6.967-15.25,23.838-15.25,23.838l-12.722-10.361
					c0,0,5.23-9.065,11.89-15.504C349.338,155.798,357.284,157.169,357.983,165.017z"/>
				<g style="opacity:0.2;">
					<polygon points="351.947,391.729 351.984,400.498 359.334,400.498 359.297,391.729 					"/>
					<polygon points="404.2,385.555 397.012,387.086 400.372,395.336 407.56,393.806 					"/>
				</g>
				<path style="fill:#7F3E3B;" d="M375.175,129.247c1.076,7.234,2.069,11.4-0.719,15.956c-4.195,6.854-13.595,5.791-16.786-0.895
					c-2.871-6.019-4.149-16.837,2.157-21.417C366.039,118.38,374.099,122.013,375.175,129.247z"/>
				<path style="fill:#263238;" d="M361.997,135.351c-3.625,0.607-5.667-3.556-2.88-7.129c-5.287,0.236-7.537-2.472-5.176-7.315
					c2.03-4.164,8.389-2.129,8.389-2.129s5.319-7.151,11.611-3.167c6.745,4.271,3.167,8.222,3.167,8.222s9.691,1.341,7.194,8.292
					c-1.347,3.75-4.972,4.042-4.972,4.042s2.478,7.461-4.875,9.037S359.664,140.535,361.997,135.351z"/>
				<path style="fill:#7F3E3B;" d="M364.232,133.489c0.164,1.919-0.442,3.864-1.314,5.223c-1.311,2.044-3.104,1.248-3.693-0.842
					c-0.53-1.881-0.486-5.211,1.289-6.53C362.262,130.04,364.044,131.295,364.232,133.489z"/>
				<path style="fill:#263238;" d="M361.325,221.87c0,0,6.169,56.142,9.934,77.175c4.123,23.033,25.474,95.33,25.474,95.33
					l13.16-2.802c0,0-14.696-67.635-16.676-90.44c-2.148-24.75-6.538-79.263-6.538-79.263H361.325z"/>
				<path style="fill:#407BFF;" d="M393.786,389.934c-0.056,0.012,2.24,4.805,2.24,4.805l14.807-3.153l-1.058-4.489L393.786,389.934
					z"/>
				<path style="opacity:0.2;" d="M365.822,241.873c9.567,1.89,7.159,37.84,5.285,56.33c-2.275-13.07-5.374-38.22-7.465-56.07
					C364.294,241.813,365.018,241.713,365.822,241.873z"/>
				<path style="fill:#263238;" d="M347.386,221.87c0,0-3.132,54.927-3.198,77.33c-0.069,23.302,5.125,99.601,5.125,99.601h12.445
					c0,0,3.35-74.937,4.787-97.822c1.567-24.949,6.67-79.108,6.67-79.108H347.386z"/>
				<g>
					<path style="fill:#407BFF;" d="M345.609,216.667c-0.234,2.242,0.889,5.203,0.889,5.203s-0.555,2.964-0.444,4.547
						c4.028,1.417,41.778,3.167,41.694,0c-0.083-3.167,0-4.547,0-4.547s1.035-4.453,0-5.203
						C386.713,215.917,345.887,214,345.609,216.667z"/>
					<path style="opacity:0.3;" d="M345.609,216.667c-0.234,2.242,0.889,5.203,0.889,5.203s-0.555,2.964-0.444,4.547
						c4.028,1.417,41.778,3.167,41.694,0c-0.083-3.167,0-4.547,0-4.547s1.035-4.453,0-5.203
						C386.713,215.917,345.887,214,345.609,216.667z"/>
				</g>
				<path style="fill:#407BFF;" d="M347.109,393.843c-0.057,0,0.503,5.167,0.503,5.167h15.139l0.587-4.611L347.109,393.843z"/>
			</g>
		</g>
	</g>
</g>
</svg>
